<svg width="35" height="23" viewBox="0 0 35 23" fill="none" xmlns="http://www.w3.org/2000/svg">
<path d="M2.62512 0C2.10907 0 1.63544 0.15503 1.23044 0.410153L16.2147 13.4944C17.0066 14.1862 17.9645 14.1862 18.7577 13.4944L33.7693 0.396872C33.3659 0.144186 32.888 0.000454183 32.3746 0.000454183H2.62488L2.62512 0ZM0.150452 1.77733C0.0595076 2.04405 0 2.32633 0 2.62482V20.1247C0 21.5788 1.17061 22.7498 2.62513 22.7498H32.3749C33.829 22.7498 35 21.5792 35 20.1247V2.62482C35 2.32636 34.9405 2.04408 34.8495 1.77702L19.9059 14.8199C18.5138 16.0342 16.4581 16.0223 15.0662 14.8064L0.150452 1.77733Z" fill="#00B70B"/>
</svg>
