<svg width="35" height="35" viewBox="0 0 35 35" fill="none" xmlns="http://www.w3.org/2000/svg">
<path fill-rule="evenodd" clip-rule="evenodd" d="M31.3302 34.2047L34.7429 30.792C34.7429 30.792 35.5304 29.2169 34.3489 27.9044C33.2989 26.7229 28.5737 22.2603 28.5737 22.2603C28.5737 22.2603 27.2612 21.3414 25.5547 23.0479C23.9796 24.7543 23.9796 24.7543 23.9796 24.7543C23.9796 24.7543 23.192 25.4107 22.142 24.8857C17.8104 22.6542 12.2981 17.1415 10.0665 12.9414C9.54152 11.8914 10.3291 10.9724 10.3291 10.9724C10.3291 10.9724 10.1976 11.1038 11.9041 9.3973C13.7417 7.69084 12.8231 6.37824 12.8231 6.37824C12.8231 6.37824 8.36035 1.78417 7.04783 0.603009C5.7353 -0.578466 4.16021 0.340496 4.16021 0.340496L0.747538 3.62204C-4.63408 14.5166 20.4362 39.5869 31.3307 34.2052L31.3302 34.2047Z" fill="#00B70B"/>
</svg>
